<svg width="172" height="44" viewBox="0 0 172 44" fill="none" xmlns="http://www.w3.org/2000/svg">
<path d="M40.0404 21.3265C40.0404 20.6587 39.9691 19.9988 39.8242 19.3468C39.8175 19.2727 39.8169 19.198 39.8029 19.125C39.367 16.8257 38.469 14.7219 37.1189 12.8124C36.3612 11.7419 35.5008 10.7624 34.4849 9.92731C34.418 9.86329 34.3546 9.79533 34.2838 9.73692C31.4718 7.41855 28.2486 6.16558 24.6043 6.0145C23.5861 5.97238 22.5701 6.01731 21.5654 6.21163C21.4817 6.21837 21.3969 6.21837 21.3149 6.23353C19.1695 6.63846 17.1538 7.38092 15.3325 8.59964C11.4321 11.2089 9.01877 14.8196 8.22688 19.4479C7.69335 22.5666 8.10333 25.592 9.42482 28.4877C12.4216 35.0542 19.616 39.3888 27.4085 37.5916C33.6559 36.1505 37.6754 32.181 39.5305 26.0452C39.9944 24.5109 40.1196 22.9266 40.0404 21.3265ZM38.3595 25.7083C36.6617 31.174 33.1443 34.9076 27.5562 36.2679C21.3289 37.7831 16.1777 35.7495 12.234 30.7376C10.1903 28.1407 9.15749 25.1405 9.21814 21.8224C9.29396 17.6973 10.9041 14.213 13.8571 11.3622C15.8576 9.43084 18.2366 8.15933 20.9622 7.5584C20.9976 7.55053 21.0301 7.53144 21.0644 7.5174C21.0801 7.532 21.0964 7.54323 21.1133 7.55166C21.1284 7.53256 21.1447 7.51627 21.1621 7.50392C21.8327 7.41294 22.5005 7.29612 23.1778 7.25961C27.0299 7.05518 30.4311 8.21212 33.4156 10.6394C34.3776 11.4218 35.233 12.3159 35.9518 13.3133C37.4334 15.3711 38.4494 17.6367 38.7605 20.1847C38.8728 21.1013 38.8874 22.0184 38.8605 22.9384H38.8588C38.8588 22.9384 38.8537 22.9412 38.8509 22.9434C38.8537 22.9474 38.8565 22.9513 38.8599 22.9547C38.7582 23.8847 38.6381 24.8125 38.3595 25.7083Z" fill="white"/>
<path d="M36.4876 21.8247C32.4041 17.7731 28.3183 13.7239 24.2387 9.6684C24.0814 9.51227 24.0039 9.48531 23.8298 9.65942C20.8459 12.6411 17.8542 15.6148 14.8636 18.5903C13.7836 19.6647 12.7019 20.7379 11.6208 21.8118C11.4921 21.8932 11.3866 21.978 11.5747 22.1083C11.7404 22.2661 11.9061 22.4234 12.0717 22.5812C12.147 22.6632 12.2189 22.7485 12.2975 22.8272C16.1289 26.6383 19.9631 30.4478 23.7894 34.2651C23.9781 34.4533 24.0691 34.4909 24.2808 34.2786C26.4722 32.0804 28.6788 29.8968 30.8787 27.7065C31.7857 26.8034 32.6854 25.8936 33.5885 24.9866C34.5759 24.0178 35.5615 23.0473 36.5522 22.0825C36.6977 21.9404 36.5556 21.8926 36.4876 21.8247ZM24.6436 31.9821V29.4021C24.6425 28.4759 24.6425 27.5493 24.6414 26.6232V26.6024C24.6408 26.1233 24.6408 25.6448 24.6397 25.1663V25.1461C24.6391 24.6142 24.6385 24.0824 24.6374 23.5505V23.5449C24.6374 23.3309 24.6369 23.1175 24.6363 22.9035V22.8805C24.6363 22.7396 24.6425 22.6547 24.8463 22.6553C26.8418 22.6615 28.8372 22.6626 30.8321 22.6632H30.8489C31.8402 22.6632 32.8315 22.6632 33.8227 22.6637C33.8575 22.6637 33.8924 22.6699 33.9901 22.6783C30.8894 25.8088 27.7994 28.8797 24.6436 31.9821ZM24.6459 12.0581C24.7705 12.0957 24.8362 12.1873 24.9115 12.2608C25.9342 13.2628 26.9552 14.2669 27.9774 15.2694C28.0437 15.3346 28.1155 15.3936 28.1846 15.4553C28.2178 15.4879 28.2509 15.5199 28.284 15.5519C28.4037 15.7025 28.5379 15.8389 28.6923 15.9541C28.7109 16.0035 28.7446 16.0377 28.7945 16.0551C28.8198 16.1119 28.8603 16.1529 28.9175 16.1765C29.3758 16.6415 29.8296 17.1104 30.2924 17.571C31.2915 18.5639 32.2951 19.5529 33.2965 20.5431C33.3184 20.5992 33.3571 20.6391 33.4133 20.661C33.4318 20.7138 33.4672 20.7497 33.52 20.7683C33.5419 20.825 33.5807 20.8643 33.6374 20.8862C33.6565 20.9384 33.6919 20.9738 33.7441 20.9929C33.8059 21.071 33.8677 21.1485 33.9283 21.2249C33.8688 21.2996 33.798 21.2675 33.7385 21.2675C30.8096 21.2681 27.8802 21.2642 24.9514 21.2704C24.72 21.2709 24.6357 21.2383 24.6369 20.9733C24.6414 19.4895 24.6419 18.0051 24.6408 16.5213V16.5056C24.6447 16.3017 24.6492 16.1001 24.6593 15.8962C24.6683 15.7058 24.6537 15.5132 24.6402 15.32V15.3048C24.6391 14.2743 24.6374 13.2442 24.6369 12.2137C24.6369 12.1687 24.6419 12.1232 24.6459 12.0581ZM23.3058 12.162C23.3406 12.2266 23.353 12.3007 23.3496 12.3895C23.3479 12.4327 23.3451 12.4911 23.3592 12.536V13.16C23.3171 13.2285 23.3491 13.3268 23.3491 13.4009C23.3429 15.9462 23.344 18.4915 23.344 21.0367C23.344 21.0783 23.3463 21.1193 23.3513 21.1586C23.3339 21.2305 23.2834 21.2732 23.1379 21.2726C20.2107 21.2636 17.2836 21.2664 14.3558 21.2664H14.143C17.2005 18.196 20.2141 15.1852 23.3058 12.162ZM23.3603 31.78C23.3603 31.8047 23.3519 31.8288 23.339 31.9035C20.2253 28.8545 17.1769 25.7914 14.0902 22.6609H15.7167C18.1765 22.6609 20.637 22.662 23.0975 22.6592C23.2626 22.6592 23.367 22.6525 23.3665 22.8833C23.3575 25.8487 23.3609 28.814 23.3603 31.78Z" fill="white"/>
<path d="M19.58 31.5401C18.9724 31.5424 18.3641 31.5463 17.7565 31.5328C15.9042 31.4907 14.5743 30.1468 14.5513 28.2973C14.544 27.6897 14.549 27.082 14.5468 26.4738C14.5468 26.3828 14.5648 26.2862 14.4873 26.2104C14.129 25.861 13.7723 25.5111 13.373 25.1203C13.4224 26.3036 13.3449 27.4257 13.4202 28.5473C13.5769 30.8729 15.3263 32.5937 17.6537 32.6662C18.7095 32.6988 19.7671 32.6757 20.824 32.6769C20.8656 32.6769 20.9189 32.6926 20.9459 32.6241C20.61 32.3068 20.2691 31.9894 19.9344 31.6654C19.8316 31.5654 19.7182 31.5396 19.58 31.5401Z" fill="white"/>
<path d="M28.5154 12.4641C29.1051 12.4574 29.6943 12.4546 30.2834 12.4664C31.9671 12.499 33.3611 13.7615 33.5442 15.4368C33.6172 16.1068 33.5576 16.783 33.5678 17.4558C33.5689 17.5479 33.5369 17.6496 33.6003 17.7288C33.9328 18.1388 34.3203 18.4937 34.7185 18.852C34.7039 17.6159 34.8303 16.391 34.6455 15.1762C34.3473 13.2117 32.8214 11.6453 30.9433 11.3976C29.6898 11.232 28.4267 11.3729 27.1681 11.3201C27.491 11.6622 27.7977 11.9778 28.0931 12.303C28.2121 12.4338 28.3464 12.4664 28.5154 12.4641Z" fill="white"/>
<path d="M14.4002 17.8259C14.5131 17.7097 14.5485 17.5833 14.5457 17.4238C14.5361 16.8908 14.5356 16.3579 14.5395 15.8249C14.5547 13.9131 15.9492 12.5012 17.8626 12.4658C18.4422 12.4557 19.0218 12.4675 19.6014 12.467C19.6845 12.467 19.8002 12.4872 19.8457 12.4428C20.2107 12.0806 20.5629 11.706 20.9111 11.342C19.8086 11.342 18.6949 11.2949 17.5863 11.3521C15.3915 11.4661 13.6583 13.1578 13.4303 15.3458C13.3101 16.5022 13.409 17.6625 13.4252 18.8554C13.7499 18.5117 14.0711 18.1652 14.4002 17.8259Z" fill="white"/>
<path d="M34.7118 27.023C34.7213 26.403 34.714 25.783 34.714 25.0927C34.358 25.4595 34.0232 25.7498 33.7424 26.0947C33.5801 26.1924 33.5414 26.3395 33.5408 26.5226C33.5397 27.2803 33.6127 28.0435 33.5099 28.7944C33.2976 30.3461 32.0373 31.4649 30.4552 31.53C29.792 31.5576 29.127 31.5357 28.4626 31.5368C28.3615 31.5373 28.2599 31.5194 28.1751 31.6075C27.8353 31.9597 27.491 32.3079 27.1164 32.6903C28.3868 32.6589 29.619 32.7386 30.8495 32.6364C31.0163 32.6229 31.1831 32.5881 31.3465 32.5511C33.1825 32.1327 34.6343 30.4152 34.6562 28.6388C34.6668 28.613 34.6781 28.5883 34.6781 28.5591V28.5119C34.7539 28.0177 34.7045 27.5189 34.7118 27.023Z" fill="white"/>
<path d="M154.876 29.8536V13.4633H158.621V16.195H158.792C159.09 15.2489 159.603 14.5197 160.328 14.0075C161.061 13.4882 161.897 13.2286 162.836 13.2286C163.049 13.2286 163.288 13.2392 163.551 13.2606C163.821 13.2748 164.045 13.2997 164.223 13.3353V16.8886C164.059 16.8317 163.8 16.7819 163.444 16.7392C163.096 16.6894 162.758 16.6645 162.43 16.6645C161.726 16.6645 161.093 16.8175 160.531 17.1234C159.976 17.4222 159.539 17.8383 159.219 18.3719C158.898 18.9054 158.738 19.5207 158.738 20.2179V29.8536H154.876Z" fill="white"/>
<path d="M144.92 30.1737C143.277 30.1737 141.858 29.8322 140.663 29.1493C139.475 28.4593 138.561 27.4847 137.92 26.2255C137.28 24.9593 136.96 23.4689 136.96 21.7545C136.96 20.0685 137.28 18.5888 137.92 17.3155C138.568 16.035 139.471 15.039 140.631 14.3276C141.79 13.6092 143.153 13.2499 144.718 13.2499C145.728 13.2499 146.681 13.4135 147.577 13.7408C148.481 14.0609 149.278 14.5588 149.968 15.2347C150.665 15.9105 151.213 16.7712 151.611 17.817C152.009 18.8556 152.209 20.0934 152.209 21.5304V22.7148H138.774V20.1112H148.506C148.499 19.3713 148.339 18.7133 148.026 18.1371C147.713 17.5538 147.275 17.0949 146.713 16.7606C146.158 16.4262 145.511 16.2591 144.771 16.2591C143.981 16.2591 143.288 16.4511 142.69 16.8353C142.093 17.2123 141.627 17.7103 141.292 18.3292C140.965 18.941 140.798 19.6132 140.791 20.3459V22.6188C140.791 23.5721 140.965 24.3902 141.314 25.0731C141.662 25.7489 142.15 26.2682 142.776 26.631C143.402 26.9867 144.134 27.1645 144.974 27.1645C145.536 27.1645 146.044 27.0863 146.5 26.9298C146.955 26.7662 147.35 26.5279 147.684 26.2148C148.019 25.9018 148.271 25.5141 148.442 25.0517L152.049 25.4572C151.821 26.4105 151.387 27.2428 150.747 27.9542C150.114 28.6584 149.303 29.2062 148.314 29.5975C147.325 29.9816 146.194 30.1737 144.92 30.1737Z" fill="white"/>
<path d="M131.93 30.0883C131.282 30.0883 130.727 29.8607 130.265 29.4054C129.803 28.9501 129.575 28.3952 129.582 27.7408C129.575 27.1005 129.803 26.5528 130.265 26.0975C130.727 25.6422 131.282 25.4145 131.93 25.4145C132.556 25.4145 133.1 25.6422 133.562 26.0975C134.032 26.5528 134.27 27.1005 134.277 27.7408C134.27 28.1747 134.156 28.5695 133.936 28.9252C133.722 29.2809 133.438 29.5655 133.082 29.7789C132.733 29.9852 132.349 30.0883 131.93 30.0883Z" fill="white"/>
<path d="M115.703 20.2499V29.8536H111.84V13.4633H115.532V16.2484H115.724C116.101 15.3307 116.702 14.6015 117.528 14.0609C118.36 13.5202 119.388 13.2499 120.611 13.2499C121.742 13.2499 122.728 13.4918 123.567 13.9755C124.414 14.4593 125.068 15.16 125.531 16.0776C126 16.9953 126.231 18.1086 126.224 19.4176V29.8536H122.361V20.0151C122.361 18.9196 122.077 18.0624 121.508 17.4435C120.946 16.8246 120.167 16.5151 119.171 16.5151C118.495 16.5151 117.894 16.6645 117.367 16.9633C116.848 17.255 116.439 17.6783 116.14 18.2331C115.849 18.788 115.703 19.4603 115.703 20.2499Z" fill="white"/>
<path d="M97.9928 20.2499V29.8536H94.13V13.4633H97.8221V16.2484H98.0142C98.3912 15.3307 98.9923 14.6015 99.8175 14.0609C100.65 13.5202 101.678 13.2499 102.901 13.2499C104.032 13.2499 105.018 13.4918 105.857 13.9755C106.704 14.4593 107.358 15.16 107.821 16.0776C108.29 16.9953 108.521 18.1086 108.514 19.4176V29.8536H104.651V20.0151C104.651 18.9196 104.367 18.0624 103.798 17.4435C103.236 16.8246 102.457 16.5151 101.461 16.5151C100.785 16.5151 100.184 16.6645 99.6575 16.9633C99.1382 17.255 98.7291 17.6783 98.4303 18.2331C98.1387 18.788 97.9928 19.4603 97.9928 20.2499Z" fill="white"/>
<path d="M82.1929 30.1844C81.1543 30.1844 80.2188 29.9994 79.3865 29.6295C78.5613 29.2524 77.9068 28.6976 77.4231 27.9648C76.9465 27.2321 76.7081 26.3287 76.7081 25.2545C76.7081 24.3297 76.8789 23.5649 77.2203 22.9603C77.5618 22.3556 78.0277 21.8719 78.6182 21.5091C79.2086 21.1462 79.8738 20.8724 80.6136 20.6874C81.3606 20.4953 82.1324 20.3566 82.9292 20.2712C83.8895 20.1717 84.6685 20.0827 85.2661 20.0045C85.8636 19.9191 86.2976 19.7911 86.5679 19.6203C86.8453 19.4425 86.9841 19.1686 86.9841 18.7987V18.7347C86.9841 17.9308 86.7457 17.3083 86.2691 16.8673C85.7925 16.4262 85.106 16.2057 84.2097 16.2057C83.2635 16.2057 82.513 16.412 81.9581 16.8246C81.4104 17.2372 81.0405 17.7245 80.8484 18.2865L77.2417 17.7743C77.5262 16.7784 77.9957 15.946 78.6502 15.2773C79.3047 14.6015 80.105 14.0964 81.0511 13.7621C81.9973 13.4206 83.043 13.2499 84.1883 13.2499C84.978 13.2499 85.764 13.3424 86.5466 13.5273C87.3291 13.7123 88.044 14.0182 88.6914 14.445C89.3387 14.8647 89.858 15.4374 90.2493 16.163C90.6477 16.8886 90.8469 17.7956 90.8469 18.8841V29.8536H87.1334V27.602H87.0054C86.7706 28.0573 86.4398 28.4841 86.013 28.8825C85.5933 29.2738 85.0633 29.5903 84.4231 29.8322C83.7899 30.067 83.0466 30.1844 82.1929 30.1844ZM83.1959 27.3459C83.9714 27.3459 84.6436 27.193 85.2127 26.8871C85.7818 26.5741 86.2193 26.1615 86.5252 25.6493C86.8382 25.1371 86.9947 24.5787 86.9947 23.974V22.0426C86.8738 22.1422 86.6675 22.2347 86.3758 22.32C86.0913 22.4054 85.7711 22.4801 85.4155 22.5441C85.0598 22.6081 84.7076 22.665 84.3591 22.7148C84.0105 22.7646 83.7081 22.8073 83.452 22.8429C82.8758 22.9211 82.3601 23.0492 81.9048 23.227C81.4495 23.4049 81.0903 23.6539 80.827 23.974C80.5638 24.287 80.4322 24.6925 80.4322 25.1905C80.4322 25.9018 80.6919 26.4389 81.2112 26.8017C81.7305 27.1645 82.3921 27.3459 83.1959 27.3459Z" fill="white"/>
<path d="M74.1052 7.99991V29.8536H70.2424V7.99991H74.1052Z" fill="white"/>
<path d="M52.0629 35.9999V13.4633H55.8617V16.1737H56.0858C56.285 15.7753 56.566 15.352 56.9288 14.9039C57.2916 14.4486 57.7824 14.0609 58.4013 13.7408C59.0202 13.4135 59.8099 13.2499 60.7702 13.2499C62.0365 13.2499 63.1783 13.5736 64.1955 14.2209C65.2199 14.8612 66.0309 15.8109 66.6285 17.07C67.2331 18.3221 67.5355 19.8586 67.5355 21.6798C67.5355 23.4796 67.2402 25.0091 66.6498 26.2682C66.0594 27.5273 65.2555 28.4877 64.2382 29.1493C63.2209 29.8109 62.0685 30.1417 60.7809 30.1417C59.8419 30.1417 59.0629 29.9852 58.444 29.6722C57.8251 29.3591 57.3271 28.9821 56.9501 28.5411C56.5802 28.0929 56.2921 27.6696 56.0858 27.2712H55.9257V35.9999H52.0629ZM55.851 21.6584C55.851 22.7184 56.0004 23.6468 56.2992 24.4435C56.6051 25.2402 57.0426 25.8627 57.6117 26.3109C58.1879 26.7519 58.8851 26.9725 59.7032 26.9725C60.5568 26.9725 61.2718 26.7448 61.848 26.2895C62.4242 25.8271 62.8581 25.1976 63.1498 24.4008C63.4486 23.597 63.598 22.6828 63.598 21.6584C63.598 20.6412 63.4521 19.7377 63.1605 18.9481C62.8688 18.1584 62.4349 17.5395 61.8586 17.0914C61.2824 16.6432 60.5639 16.4191 59.7032 16.4191C58.878 16.4191 58.1772 16.6361 57.601 17.07C57.0248 17.504 56.5873 18.1122 56.2885 18.8947C55.9969 19.6772 55.851 20.5985 55.851 21.6584Z" fill="white"/>
</svg>
